<svg xmlns="http://www.w3.org/2000/svg" x="0px" y="0px" width="100" height="100" viewBox="0,0,256,256">
<g fill="#4ed034" fill-rule="nonzero" stroke="none" stroke-width="1" stroke-linecap="butt" stroke-linejoin="miter" stroke-miterlimit="10" stroke-dasharray="" stroke-dashoffset="0" font-family="none" font-weight="none" font-size="none" text-anchor="none" style="mix-blend-mode: normal"><g transform="scale(5.12,5.12)"><path d="M14,3.99023c-5.514,0 -10,4.486 -10,10v22c0,5.514 4.486,10 10,10h18v-0.02734c1.82774,2.44245 4.73263,4.03711 8,4.03711c5.5,0 10,-4.5 10,-10c0,-3.26737 -1.59466,-6.17226 -4.03711,-8h0.03711v-18.00977c0,-5.514 -4.486,-10 -10,-10zM14,5.99023h22c4.411,0 8,3.589 8,8v16.85547c-1.22723,-0.54051 -2.57886,-0.8457 -4,-0.8457c-4.56692,0 -8.43496,3.10706 -9.61914,7.30859c-1.29639,0.93643 -2.48288,1.98123 -3.44141,3.02148c-0.58,0.64 -0.11,1.66992 0.75,1.66992h2.51172c0.14204,0.69228 0.36261,1.35718 0.64063,1.99023h-16.8418c-4.411,0 -8,-3.589 -8,-8v-22c0,-4.411 3.589,-8 8,-8zM14,8c-3.314,0 -6,2.686 -6,6v3.50195c0,0.381 0.21059,0.73658 0.55859,0.89258c4.654,2.087 12.1028,12.36647 13.3418,23.60547h3.19922c1.214,-12.109 13.24347,-19.77302 16.23047,-20.91602c0.397,-0.151 0.66992,-0.51836 0.66992,-0.94336v-6.14062c0,-3.314 -2.686,-6 -6,-6h-6.59766c-0.602,0 -1.06619,0.52019 -0.99219,1.11719c0.709,5.682 0.57684,17.04981 -5.41016,29.88281c0,-9.434 -5.34003,-24.19802 -8.45703,-30.66602c-0.101,-0.209 -0.31097,-0.33398 -0.54297,-0.33398zM40,32c4.4,0 8,3.6 8,8c0,4.4 -3.6,8 -8,8c-4.4,0 -8,-3.6 -8,-8c0,-4.4 3.6,-8 8,-8zM9.10938,33.95313c-0.593,-0.07 -1.10937,0.40495 -1.10937,1.00195v1.04492c0,3.314 2.686,6 6,6h5.30859c0.868,0 1.33509,-1.03388 0.74609,-1.67187c-2.708,-2.937 -7.22531,-5.929 -10.94531,-6.375zM44.61523,35c-0.04219,0 -0.07031,0.00586 -0.07031,0.00586c0,0 -5.79727,1.19883 -6.19727,1.29883c-0.25,0.05 -0.34961,0.20117 -0.34961,0.45117v4.48633c0,0.45 0.099,0.75 -1,0.75c-1.199,0 -1.99805,0.74805 -1.99805,1.49805c0,0.5 0.20005,1.49905 1.74805,1.49805c1.549,0 2.24805,-0.94805 2.24805,-1.49805v-4.28711c0,-0.3 0.05117,-0.39922 0.20117,-0.44922c0.15,0 3.74844,-0.90078 4.39844,-1.05078c0.4,-0.1 0.39844,0.00156 0.39844,0.35156v1.40234v0.80078c0,0.45 0.10095,0.75 -0.99805,0.75c-1.199,0 -2,0.75 -2,1.5c0,0.5 0.201,1.49805 1.75,1.49805c1.549,0 2.24805,-0.94805 2.24805,-1.49805v-3.34961v-1.45312v-2.19922c0,-0.45 -0.25234,-0.50586 -0.37891,-0.50586z"></path></g></g>
</svg>